<?xml version="1.0" encoding="iso-8859-1"?>
<!-- Generator: Adobe Illustrator 21.0.0, SVG Export Plug-In . SVG Version: 6.00 Build 0)  -->
<svg xmlns="http://www.w3.org/2000/svg" xmlns:xlink="http://www.w3.org/1999/xlink" version="1.1" id="Capa_1" x="0px" y="0px" viewBox="0 0 512 512" style="enable-background:new 0 0 512 512;" xml:space="preserve" width="512" height="512">
<g>
	<g>
		<g>
			<g>
				<g>
					<g>
						<g>
							<g>
								<g>
									<g>
										<g>
											<g>
												<circle style="fill:#FF432E;" cx="256" cy="256" r="256"/>
											</g>
										</g>
									</g>
								</g>
							</g>
						</g>
					</g>
				</g>
			</g>
		</g>
	</g>
	<path style="fill:#DB0404;" d="M512,256c0-6.43-0.244-12.803-0.71-19.114l-123.758-124.73L97.671,356.826L252.804,511.96   c1.065,0.013,2.127,0.04,3.196,0.04C397.385,512,512,397.385,512,256z"/>
	<g>
		<g>
			<g>
				<g>
					<g>
						<g>
							<g>
								<g>
									<g>
										<g>
											<g>
												<path style="fill:#FFFFFF;" d="M427.657,250.052c0-94.804-76.853-171.657-171.657-171.657              S84.343,155.249,84.343,250.052c0,32.075,8.807,62.089,24.12,87.774h295.074              C418.85,312.142,427.657,282.127,427.657,250.052z"/>
												<path style="fill:#E9EDF5;" d="M427.657,250.052c0-94.804-76.853-171.657-171.657-171.657              c-0.032,0-0.063,0.001-0.095,0.001v259.43h147.632C418.85,312.142,427.657,282.127,427.657,250.052z"/>
												<path style="fill:#555A66;" d="M414.329,356.826H97.671l-5.527-9.27c-17.534-29.408-26.801-63.124-26.801-97.504              c0-105.129,85.528-190.657,190.657-190.657s190.657,85.528,190.657,190.657c0,34.38-9.268,68.096-26.801,97.504              L414.329,356.826z M119.687,318.826h272.626c10.72-21.227,16.344-44.793,16.344-68.774              c0-84.175-68.482-152.657-152.657-152.657s-152.657,68.482-152.657,152.657              C103.343,274.033,108.967,297.599,119.687,318.826z"/>
												<path style="fill:#333940;" d="M256,59.395c-0.032,0-0.063,0.001-0.095,0.001v38c0.032,0,0.063-0.001,0.095-0.001              c84.175,0,152.657,68.482,152.657,152.657c0,23.98-5.624,47.547-16.344,68.774H255.905v38h158.424l5.527-9.27              c17.534-29.408,26.801-63.124,26.801-97.504C446.657,144.923,361.129,59.395,256,59.395z"/>
											</g>
										</g>
									</g>
								</g>
							</g>
						</g>
					</g>
				</g>
			</g>
		</g>
	</g>
	<g>
		<path style="fill:#8DD62D;" d="M115,250c0,5.755,0.353,11.426,1.023,17h56.68c-1.115-5.493-1.704-11.178-1.704-17    c0-16.332,4.615-31.582,12.6-44.534l-35.058-46.744C127.627,183.319,115,215.183,115,250z"/>
	</g>
	<g>
		<path style="fill:#CCED43;" d="M148.541,158.722l35.058,46.744C198.565,181.189,225.388,165,256,165h0v-56    C212.945,109,174.404,128.304,148.541,158.722z"/>
	</g>
	<g>
		<path style="fill:#FFC200;" d="M256,109v56c30.523,0,57.275,16.097,72.266,40.256l38.454-42.564    C340.898,129.991,300.901,109,256,109z"/>
	</g>
	<g>
		<path style="fill:#FF432E;" d="M328.266,205.256C336.331,218.253,341,233.578,341,250c0,5.822-0.588,11.507-1.704,17h56.68    c0.67-5.574,1.023-11.245,1.023-17c0-32.971-11.319-63.296-30.28-87.308L328.266,205.256z"/>
	</g>
	<path style="fill:#555A66;" d="M347.005,192.169l-33.709-17.542l-62.288,119.697c-21.834,2.479-38.801,21.004-38.801,43.502   c0,24.186,19.607,43.793,43.793,43.793s43.793-19.607,43.793-43.793c0-11.973-4.81-22.819-12.597-30.725L347.005,192.169z"/>
	<path style="fill:#333940;" d="M347.005,192.169l-33.709-17.542l-57.392,110.287v96.702c0.032,0,0.063,0.002,0.095,0.002   c24.186,0,43.793-19.607,43.793-43.793c0-11.973-4.81-22.819-12.597-30.725L347.005,192.169z"/>
</g>















</svg>
