<svg enable-background="new 0 0 256 256" height="512" viewBox="0 0 256 256" width="512" xmlns="http://www.w3.org/2000/svg"><path d="m64.05 2.5h-6.121c-2.346 0-4.266 1.92-4.266 4.266v242.467c0 2.346 1.92 4.266 4.266 4.266h6.121c2.346 0 4.266-1.92 4.266-4.266v-242.467c0-2.346-1.92-4.266-4.266-4.266z" fill="#f5c84c"/><path d="m198.071 2.5h-6.121c-2.346 0-4.266 1.92-4.266 4.266v242.467c0 2.346 1.92 4.266 4.266 4.266h6.121c2.346 0 4.266-1.92 4.266-4.266v-242.467c0-2.346-1.92-4.266-4.266-4.266z" fill="#f5c84c"/><path d="m68.316 7.627h119.368v25.373h-119.368z" fill="#3caadc"/><path d="m68.316 33h119.368v9.5h-119.368z" fill="#3a70bf"/><path d="m68.316 42.5h19.684v50h-19.684z" fill="#c7d7e5"/><path d="m168 42.5h19.684v50h-19.684z" fill="#c7d7e5"/><path d="m88 42.5h80v50h-80z" fill="#f5c84c"/><path d="m68.316 59.608h19.684v15.783h-19.684z" fill="#edf4fc"/><path d="m168 59.608h19.684v15.783h-19.684z" fill="#edf4fc"/><path d="m187.684 249.234v-107.734h-119.368v107.734c0 2.011-1.415 3.7-3.296 4.143v.123h126.93c-2.346 0-4.266-1.92-4.266-4.266z" fill="#3a70bf"/><path d="m176.552 253.5v-72.79c0-2.865-2.344-5.209-5.209-5.209h-86.686c-2.865 0-5.209 2.344-5.209 5.209v72.79z" fill="#5290db"/><path d="m102 160.983v-4.967c0-1.934 1.582-3.517 3.517-3.517h-15.571c-.798 0-1.446.647-1.446 1.446v7.109c0 .799.647 1.446 1.446 1.446h12.414c-.224-.461-.36-.972-.36-1.517z" fill="#173f7f"/><path d="m166.054 152.5h-15.571c1.934 0 3.517 1.583 3.517 3.517v4.967c0 .545-.136 1.055-.36 1.517h12.414c.798 0 1.446-.647 1.446-1.446v-7.109c0-.799-.647-1.446-1.446-1.446z" fill="#173f7f"/><circle cx="128" cy="236" fill="#c7d7e5" r="5.5"/><path d="m150.483 152.5h-44.967c-1.934 0-3.517 1.583-3.517 3.517v4.967c0 1.934 1.582 3.517 3.517 3.517h44.967c1.934 0 3.517-1.583 3.517-3.517v-4.967c0-1.934-1.582-3.517-3.517-3.517z" fill="#c7d7e5"/><path d="m68.316 92.5v20h81.89c-.782 0-1.416-.634-1.416-1.417v-7.167c0-.782.634-1.417 1.416-1.417h25.589c.782 0 1.416.634 1.416 1.417v7.167c0 .782-.634 1.417-1.416 1.417h11.89v-20z" fill="#3a70bf"/><path d="m173.5 112.5v14.937c0 1.139-.924 2.063-2.063 2.063h-16.875c-1.139 0-2.063-.924-2.063-2.063v-14.937h-84.183v29h119.368v-29z" fill="#c7d7e5"/><path d="m175.794 102.5h-25.589c-.782 0-1.416.634-1.416 1.417v7.167c0 .782.634 1.417 1.416 1.417h25.589c.782 0 1.416-.634 1.416-1.417v-7.167c.001-.783-.633-1.417-1.416-1.417z" fill="#5290db"/><path d="m152.5 112.5v14.937c0 1.139.924 2.063 2.063 2.063h16.875c1.139 0 2.063-.924 2.063-2.063v-14.937z" fill="#edf4fc"/><path d="m38.501 220.05c-1.349.255-2.255 1.464-2.255 2.749 0 1.501 1.207 2.805 2.805 2.805 1.563 0 2.805-1.27 2.805-2.805-.001-1.672-1.505-3.093-3.355-2.749z" fill="#87d147"/><path d="m217.601 129.05c-1.849-.334-3.355 1.047-3.355 2.749 0 1.479 1.184 2.805 2.805 2.805 1.517 0 2.805-1.257 2.805-2.805-.001-1.349-.977-2.507-2.255-2.749z" fill="#3caadc"/><path d="m37.529 194.874h-2.07v-2.07c0-1.549-1.256-2.805-2.805-2.805s-2.805 1.256-2.805 2.805v2.07h-2.069c-1.549 0-2.805 1.256-2.805 2.805s1.256 2.805 2.805 2.805h2.069v2.07c0 1.549 1.256 2.805 2.805 2.805s2.805-1.256 2.805-2.805v-2.07h2.07c1.549 0 2.805-1.256 2.805-2.805-.001-1.549-1.256-2.805-2.805-2.805z" fill="#3caadc"/><path d="m217.601 41.05c-1.854-.335-3.355 1.052-3.355 2.749 0 1.637 1.428 3.087 3.355 2.749 1.249-.236 2.255-1.377 2.255-2.749-.001-1.352-.979-2.508-2.255-2.749z" fill="#f5c84c"/><path d="m233.164 19.89c-3.995-.744-7.144-3.829-7.904-7.743-.038-.197-.313-.197-.351 0-.76 3.914-3.908 6.999-7.904 7.743-.201.037-.201.306 0 .344 3.995.744 7.144 3.829 7.904 7.743.038.197.313.197.351 0 .76-3.914 3.908-6.999 7.904-7.743.201-.038.201-.306 0-.344z" fill="#ef4460"/><path d="m64.05 256h-6.121c-3.73 0-6.766-3.035-6.766-6.767v-242.466c.001-3.732 3.036-6.767 6.766-6.767h6.121c3.73 0 6.766 3.035 6.766 6.767v242.467c0 3.731-3.035 6.766-6.766 6.766zm-6.121-251c-.974 0-1.766.793-1.766 1.767v242.467c0 .974.792 1.767 1.766 1.767h6.121c.974 0 1.766-.793 1.766-1.767v-242.467c0-.974-.792-1.767-1.766-1.767z"/><path d="m198.071 256h-6.121c-3.73 0-6.766-3.035-6.766-6.767v-242.466c0-3.731 3.035-6.767 6.766-6.767h6.121c3.73 0 6.766 3.035 6.766 6.767v242.467c-.001 3.731-3.036 6.766-6.766 6.766zm-6.121-251c-.974 0-1.766.793-1.766 1.767v242.467c0 .974.792 1.767 1.766 1.767h6.121c.974 0 1.766-.793 1.766-1.767v-242.467c0-.974-.792-1.767-1.766-1.767z"/><path d="m115.531 125h-3.062c-1.381 0-2.5-1.119-2.5-2.5s1.119-2.5 2.5-2.5h3.062c1.381 0 2.5 1.119 2.5 2.5s-1.119 2.5-2.5 2.5z"/><path d="m127.531 125h-3.062c-1.381 0-2.5-1.119-2.5-2.5s1.119-2.5 2.5-2.5h3.062c1.381 0 2.5 1.119 2.5 2.5s-1.119 2.5-2.5 2.5z"/><path d="m139.531 125h-3.062c-1.381 0-2.5-1.119-2.5-2.5s1.119-2.5 2.5-2.5h3.062c1.381 0 2.5 1.119 2.5 2.5s-1.119 2.5-2.5 2.5z"/><path d="m115.531 134h-3.062c-1.381 0-2.5-1.119-2.5-2.5s1.119-2.5 2.5-2.5h3.062c1.381 0 2.5 1.119 2.5 2.5s-1.119 2.5-2.5 2.5z"/><path d="m127.531 134h-3.062c-1.381 0-2.5-1.119-2.5-2.5s1.119-2.5 2.5-2.5h3.062c1.381 0 2.5 1.119 2.5 2.5s-1.119 2.5-2.5 2.5z"/><path d="m139.531 134h-3.062c-1.381 0-2.5-1.119-2.5-2.5s1.119-2.5 2.5-2.5h3.062c1.381 0 2.5 1.119 2.5 2.5s-1.119 2.5-2.5 2.5z"/><path d="m94.5 105h-14c-1.381 0-2.5-1.119-2.5-2.5s1.119-2.5 2.5-2.5h14c1.381 0 2.5 1.119 2.5 2.5s-1.119 2.5-2.5 2.5z"/><path d="m130.574 80.8h-8.526c-1.381 0-2.5-1.119-2.5-2.5s1.119-2.5 2.5-2.5h8.526c1.616 0 2.931-1.315 2.931-2.932s-1.315-2.931-2.931-2.931h-6.016c-4.373 0-7.931-3.559-7.931-7.932s3.558-7.931 7.931-7.931h9.621c1.381 0 2.5 1.119 2.5 2.5s-1.119 2.5-2.5 2.5h-9.621c-1.616 0-2.931 1.314-2.931 2.931s1.315 2.932 2.931 2.932h6.016c4.373 0 7.931 3.558 7.931 7.931s-3.558 7.932-7.931 7.932z"/><path d="m127.566 84.516c-1.381 0-2.5-1.119-2.5-2.5v-29.157c0-1.381 1.119-2.5 2.5-2.5s2.5 1.119 2.5 2.5v29.156c0 1.381-1.119 2.501-2.5 2.501z"/><path d="m187.684 35.5h-119.368c-1.381 0-2.5-1.119-2.5-2.5v-25.373c0-1.381 1.119-2.5 2.5-2.5h119.368c1.381 0 2.5 1.119 2.5 2.5v25.373c0 1.381-1.119 2.5-2.5 2.5zm-116.868-5h114.368v-20.373h-114.368z"/><path d="m187.684 45h-119.368c-1.381 0-2.5-1.119-2.5-2.5v-9.5c0-1.381 1.119-2.5 2.5-2.5h119.368c1.381 0 2.5 1.119 2.5 2.5v9.5c0 1.381-1.119 2.5-2.5 2.5zm-116.868-5h114.368v-4.5h-114.368z"/><path d="m88 95h-19.684c-1.381 0-2.5-1.119-2.5-2.5v-50c0-1.381 1.119-2.5 2.5-2.5h19.684c1.381 0 2.5 1.119 2.5 2.5v50c0 1.381-1.119 2.5-2.5 2.5zm-17.184-5h14.684v-45h-14.684z"/><path d="m187.684 95h-19.684c-1.381 0-2.5-1.119-2.5-2.5v-50c0-1.381 1.119-2.5 2.5-2.5h19.684c1.381 0 2.5 1.119 2.5 2.5v50c0 1.381-1.119 2.5-2.5 2.5zm-17.184-5h14.684v-45h-14.684z"/><path d="m168 95h-80c-1.381 0-2.5-1.119-2.5-2.5v-50c0-1.381 1.119-2.5 2.5-2.5h80c1.381 0 2.5 1.119 2.5 2.5v50c0 1.381-1.119 2.5-2.5 2.5zm-77.5-5h75v-45h-75z"/><path d="m88 77.892h-19.684c-1.381 0-2.5-1.119-2.5-2.5v-15.784c0-1.381 1.119-2.5 2.5-2.5h19.684c1.381 0 2.5 1.119 2.5 2.5v15.783c0 1.381-1.119 2.501-2.5 2.501zm-17.184-5h14.684v-10.784h-14.684z"/><path d="m187.684 77.892h-19.684c-1.381 0-2.5-1.119-2.5-2.5v-15.784c0-1.381 1.119-2.5 2.5-2.5h19.684c1.381 0 2.5 1.119 2.5 2.5v15.783c0 1.381-1.119 2.501-2.5 2.501zm-17.184-5h14.684v-10.784h-14.684z"/><path d="m191.95 256h-126.929c-1.381 0-2.5-1.119-2.5-2.5v-.123c0-1.16.797-2.167 1.926-2.434.793-.187 1.369-.906 1.369-1.71v-107.733c0-1.381 1.119-2.5 2.5-2.5h119.368c1.381 0 2.5 1.119 2.5 2.5v107.733c0 .974.792 1.767 1.766 1.767 1.381 0 2.5 1.119 2.5 2.5s-1.119 2.5-2.5 2.5zm-126.929-2.623h.01zm5.562-2.377h114.834c-.152-.563-.234-1.155-.234-1.767v-105.233h-114.367v105.233c0 .61-.081 1.203-.233 1.767z"/><path d="m176.552 256h-97.104c-1.381 0-2.5-1.119-2.5-2.5v-72.791c0-4.251 3.458-7.709 7.709-7.709h86.686c4.251 0 7.709 3.458 7.709 7.709v72.791c0 1.381-1.119 2.5-2.5 2.5zm-94.604-5h92.104v-70.291c0-1.494-1.215-2.709-2.709-2.709h-86.686c-1.494 0-2.709 1.215-2.709 2.709z"/><path d="m102.36 165h-12.414c-2.176 0-3.946-1.77-3.946-3.945v-7.109c0-2.176 1.77-3.945 3.946-3.945h15.571c1.381 0 2.5 1.119 2.5 2.5s-1.119 2.5-2.5 2.5c-.551 0-1.017.466-1.017 1.017v4.967c0 .135.036.274.109.426.376.774.327 1.688-.13 2.418s-1.258 1.171-2.119 1.171zm-11.36-5h8.5v-3.983c0-.347.029-.686.086-1.017h-8.586z"/><path d="m166.054 165h-12.414c-.861 0-1.662-.443-2.119-1.173s-.506-1.644-.13-2.418c.073-.151.109-.291.109-.426v-4.967c0-.551-.465-1.017-1.017-1.017-1.381 0-2.5-1.119-2.5-2.5s1.119-2.5 2.5-2.5h15.571c2.176 0 3.946 1.77 3.946 3.945v7.109c0 2.177-1.77 3.947-3.946 3.947zm-9.554-5h8.5v-5h-8.586c.057.331.086.67.086 1.017zm9.554-5h.01z"/><path d="m128 244c-4.411 0-8-3.589-8-8s3.589-8 8-8 8 3.589 8 8-3.589 8-8 8zm0-11c-1.654 0-3 1.346-3 3s1.346 3 3 3 3-1.346 3-3-1.346-3-3-3z"/><path d="m150.483 167h-44.967c-3.317 0-6.017-2.699-6.017-6.017v-4.967c0-3.317 2.699-6.017 6.017-6.017h44.967c3.317 0 6.017 2.699 6.017 6.017v4.967c0 3.318-2.699 6.017-6.017 6.017zm-44.966-12c-.551 0-1.017.466-1.017 1.017v4.967c0 .551.465 1.017 1.017 1.017h44.967c.551 0 1.017-.466 1.017-1.017v-4.967c0-.551-.465-1.017-1.017-1.017z"/><path d="m187.684 115h-11.89c-1.381 0-2.5-1.119-2.5-2.5 0-.992.578-1.85 1.417-2.254v-5.246h-23.422v5.246c.838.404 1.417 1.262 1.417 2.254 0 1.381-1.119 2.5-2.5 2.5h-81.89c-1.381 0-2.5-1.119-2.5-2.5v-20c0-1.381 1.119-2.5 2.5-2.5h119.368c1.381 0 2.5 1.119 2.5 2.5v20c0 1.381-1.119 2.5-2.5 2.5zm-7.973-5h5.473v-15h-114.368v15h75.473v-6.084c0-2.159 1.757-3.916 3.917-3.916h25.589c2.16 0 3.917 1.757 3.917 3.916v6.084z"/><path d="m187.684 144h-119.368c-1.381 0-2.5-1.119-2.5-2.5v-29c0-1.381 1.119-2.5 2.5-2.5h84.184c1.381 0 2.5 1.119 2.5 2.5v14.5h16v-14.5c0-1.381 1.119-2.5 2.5-2.5h14.184c1.381 0 2.5 1.119 2.5 2.5v29c0 1.381-1.119 2.5-2.5 2.5zm-116.868-5h114.368v-24h-9.184v12.438c0 2.516-2.047 4.562-4.563 4.562h-16.875c-2.516 0-4.562-2.047-4.562-4.562v-12.438h-79.184z"/><path d="m175.794 115h-25.589c-2.16 0-3.917-1.757-3.917-3.916v-7.168c0-2.159 1.757-3.916 3.917-3.916h25.589c2.16 0 3.917 1.757 3.917 3.916v7.168c0 2.159-1.757 3.916-3.917 3.916zm-24.505-5h23.422v-5h-23.422zm24.505-5h.01z"/><path d="m171.437 132h-16.875c-2.516 0-4.562-2.047-4.562-4.562v-14.938c0-1.381 1.119-2.5 2.5-2.5h21c1.381 0 2.5 1.119 2.5 2.5v14.938c0 2.515-2.047 4.562-4.563 4.562zm-16.437-5h16v-12h-16z"/></svg>