<svg height="512" viewBox="0 0 512 512" width="512" xmlns="http://www.w3.org/2000/svg"><g id="Flat"><g fill="#0093b9"><path d="m448 192h16v48h-16z"/><path d="m416 192h16v48h-16z"/><path d="m336 24h16v32h-16z"/></g><path d="m320 112v-73.714l48 17.143v72.571z" fill="#fbbe1f"/><path d="m280 488v-416l112 40v376z" fill="#0093b9"/><path d="m304 120h16v16h-16z" fill="#067a98"/><path d="m352 136h16v16h-16z" fill="#fbbe1f"/><path d="m336 176h16v16h-16z" fill="#fbbe1f"/><path d="m328 488h-16v-304l16 16z" fill="#0784a9"/><path d="m56 176h16v48h-16z" fill="#85bb40"/><path d="m88 192h16v32h-16z" fill="#85bb40"/><path d="m160 32h40v48h-40z" fill="#85b140"/><path d="m144 64h72v56h-72z" fill="#0093b9"/><path d="m128 96h104v264h-104z" fill="#85bb40"/><path d="m160 120h16v16h-16z" fill="#7ba03f"/><path d="m152 176h16v16h-16z" fill="#7ba03f"/><path d="m192 152h16v16h-16z" fill="#f7ce2c"/><path d="m176 328h-16v-112l16 16z" fill="#7ba03f"/><path d="m312 488v-304l-104 32v272z" fill="#f9a239"/><path d="m360 216h112v272h-112z" fill="#fbbe1f"/><path d="m40 216h120v272h-120z" fill="#fbbe1f"/><path d="m40 248h80v16h-80z" fill="#f79726"/><path d="m40 280h72v16h-72z" fill="#e8732d"/><path d="m40 312h48v16h-48z" fill="#f79726"/><path d="m40 344h56v16h-56z" fill="#e8732d"/><path d="m40 376h48v16h-48z" fill="#f79726"/><path d="m40 408h48v16h-48z" fill="#f79726"/><path d="m40 440h56v16h-56z" fill="#e8732d"/><path d="m272 224h40v16h-40z" fill="#f7ce2c"/><path d="m248 256h64v16h-64z" fill="#e47b33"/><path d="m392 248h80v16h-80z" fill="#f79726"/><path d="m432 312h40v16h-40z" fill="#f79726"/><path d="m432 344h40v16h-40z" fill="#e8732d"/><path d="m424 376h48v16h-48z" fill="#e8732d"/><path d="m424 408h48v16h-48z" fill="#f79726"/><path d="m424 440h48v16h-48z" fill="#f79726"/><path d="m432 280h40v16h-40z" fill="#e8732d"/><path d="m224 488h16v-152l-16-16z" fill="#e68a49"/><path d="m152 264h16v40h-16z" fill="#0093b9"/><path d="m176 336v-32a16 16 0 0 0 -16-16 16 16 0 0 0 -16 16v32z" fill="#067a98"/><path d="m128 488v-168h96v166.965" fill="#0093b9"/><path d="m152 352h16v104h-16z" fill="#067a98"/><path d="m184 352h16v104h-16z" fill="#fbbe1f"/><path d="m392 320 16-16 16 16v48h-16v120h-16z" fill="#f7aa23"/><path d="m280 352h112v136h-112z" fill="#85bb40"/><path d="m312 376h16v16h-16z" fill="#f7ce2c"/><path d="m344 376h16v16h-16z" fill="#7ba03f"/><path d="m312 408h16v16h-16z" fill="#7ba03f"/><path d="m344 408h16v16h-16z" fill="#f7ce2c"/><path d="m312 440h16v16h-16z" fill="#f7ce2c"/><path d="m344 440h16v16h-16z" fill="#7ba03f"/><path d="m280 344h112v24h-112z" fill="#7ba03f"/><path d="m264 320 144-16v48h-144z" fill="#85bb40"/><path d="m16 480h480v16h-480z" fill="#cacac9"/></g></svg>