<svg height="512pt" viewBox="0 0 512 512" width="512pt" xmlns="http://www.w3.org/2000/svg"><path d="m448 202c0 106.039062-85.960938 192-192 192s-192-85.960938-192-192 85.960938-192 192-192 192 85.960938 192 192zm0 0" fill="#feda9b"/><path d="m305.839844 85.570312h-106.71875l-24.457032 127.417969h60.609376l-31.734376 130.113281 133.796876-173.933593h-75.003907zm0 0" fill="#ff5d5d"/><path d="m10 438h492v64h-492zm0 0" fill="#ffefd5"/><path d="m502 492h-44v-13.28125c0-5.523438-4.476562-10-10-10s-10 4.476562-10 10v13.28125h-172v-13.28125c0-5.523438-4.476562-10-10-10s-10 4.476562-10 10v13.28125h-172v-13.28125c0-5.523438-4.476562-10-10-10s-10 4.476562-10 10v13.28125h-44c-5.523438 0-10 4.476562-10 10s4.476562 10 10 10h492c5.523438 0 10-4.476562 10-10s-4.476562-10-10-10zm0 0"/><path d="m50 448h100.128906v13.28125c0 5.523438 4.476563 10 10 10 5.519532 0 10-4.476562 10-10v-13.28125h172v13.28125c0 5.523438 4.476563 10 10 10 5.519532 0 10-4.476562 10-10v-13.28125h139.871094c5.523438 0 10-4.476562 10-10s-4.476562-10-10-10h-452c-5.523438 0-10 4.476562-10 10s4.476562 10 10 10zm0 0"/><path d="m10 448c2.628906 0 5.210938-1.070312 7.070312-2.929688 1.859376-1.859374 2.929688-4.441406 2.929688-7.070312s-1.070312-5.210938-2.929688-7.070312c-1.859374-1.859376-4.441406-2.929688-7.070312-2.929688s-5.210938 1.070312-7.070312 2.929688c-1.859376 1.859374-2.929688 4.441406-2.929688 7.070312s1.070312 5.210938 2.929688 7.070312c1.859374 1.859376 4.441406 2.929688 7.070312 2.929688zm0 0"/><path d="m256 404c111.382812 0 202-90.617188 202-202 0-53.933594-20.996094-104.648438-59.125-142.796875-3.902344-3.90625-10.234375-3.90625-14.140625-.003906-3.90625 3.90625-3.910156 10.238281-.003906 14.144531 8.972656 8.976562 16.882812 18.734375 23.6875 29.109375l-98.230469 56.714844h-31.378906l35.898437-68.980469c1.613281-3.097656 1.492188-6.816406-.320312-9.804688-1.8125-2.988281-5.054688-4.8125-8.546875-4.8125h-106.71875c-4.796875 0-8.917969 3.40625-9.820313 8.117188l-24.457031 127.414062c-.5625 2.929688.210938 5.957032 2.109375 8.257813 1.902344 2.296875 4.730469 3.628906 7.710937 3.628906h24.984376l-106.003907 61.199219c-12.554687-24.703125-19.644531-52.632812-19.644531-82.1875 0-100.355469 81.644531-182 182-182 22.453125 0 44.371094 4.039062 65.136719 12 5.160156 1.976562 10.941406-.601562 12.917969-5.757812 1.976562-5.15625-.601563-10.9375-5.757813-12.917969-23.0625-8.839844-47.386719-13.324219-72.296875-13.324219-111.382812 0-202 90.617188-202 202s90.617188 202 202 202zm61.027344-224.832031-92.558594 120.324219 19.230469-78.84375 71.847656-41.480469zm-130.261719 23.820312 20.617187-107.417969h81.980469l-35.898437 68.980469c-1.613282 3.101563-1.492188 6.816407.320312 9.804688s5.054688 4.8125 8.550782 4.8125h13.210937l-41.257813 23.820312zm32.972656 31.492188-25.914062 106.25c-1.117188 4.59375 1.128906 9.339843 5.390625 11.386719 1.386718.664062 2.859375.984374 4.320312.984374 3.027344 0 5.988282-1.375 7.933594-3.902343l133.792969-173.933594c2.324219-3.019531 2.730469-7.097656 1.046875-10.515625-.4375-.886719-1-1.683594-1.652344-2.386719l73.796875-42.609375c12.777344 25.179688 19.546875 53.191406 19.546875 82.246094 0 100.355469-81.644531 182-182 182-63.664062 0-119.785156-32.863281-152.324219-82.511719zm0 0"/><path d="m355.367188 49.492188c1.667968 1.070312 3.535156 1.582031 5.382812 1.582031 3.226562 0 6.390625-1.558594 8.316406-4.4375 3.070313-4.585938 1.847656-10.785157-2.726562-13.863281-.179688-.121094-.371094-.242188-.558594-.347657-4.769531-2.785156-10.894531-1.171875-13.675781 3.597657-2.714844 4.65625-1.246094 10.601562 3.261719 13.46875zm0 0"/></svg>