<svg height="511pt" viewBox="-50 1 511 511.999" width="511pt" xmlns="http://www.w3.org/2000/svg"><path d="m405.996094 304.390625-110-90c-4.484375-3.667969-10.683594-4.425781-15.921875-1.945313-5.238281 2.480469-8.574219 7.757813-8.574219 13.554688v30h-106v-116h30c5.792969 0 11.070312-3.339844 13.554688-8.578125 2.480468-5.238281 1.722656-11.433594-1.945313-15.921875l-90-110c-2.847656-3.480469-7.113281-5.5-11.609375-5.5-4.5 0-8.761719 2.019531-11.609375 5.5l-90 110c-3.671875 4.488281-4.429687 10.683594-1.945313 15.921875 2.480469 5.238281 7.757813 8.578125 13.554688 8.578125h30v357c0 8.28125 6.71875 15 15 15h88.5c.25 0 .496094-.027344.746094-.039062.25.011718.5.039062.753906.039062 8.285156 0 15-6.71875 15-15v-121h106v30c0 5.792969 3.339844 11.070312 8.574219 13.554688 5.238281 2.480468 11.4375 1.722656 15.925781-1.949219l109.996094-89.996094c3.484375-2.851563 5.503906-7.113281 5.503906-11.609375 0-4.5-2.023438-8.761719-5.503906-11.609375zm0 0" fill="#00429b"/><path d="m405.996094 304.390625-110-90c-4.484375-3.667969-10.683594-4.425781-15.921875-1.945313-5.238281 2.480469-8.574219 7.757813-8.574219 13.554688v30h-106v-116h30c5.792969 0 11.070312-3.339844 13.554688-8.578125 2.480468-5.238281 1.722656-11.433594-1.945313-15.921875l-90-110c-2.742187-3.351562-6.796875-5.328125-11.109375-5.4726562v511.9726562h43c.25 0 .496094-.027344.746094-.039062.25.011718.5.039062.753906.039062 8.285156 0 15-6.71875 15-15v-121h106v30c0 5.792969 3.339844 11.070312 8.574219 13.554688 5.238281 2.480468 11.4375 1.722656 15.925781-1.949219l109.996094-89.996094c3.484375-2.851563 5.503906-7.113281 5.503906-11.609375 0-4.5-2.023438-8.761719-5.503906-11.609375zm0 0" fill="#002659"/></svg>